TORRENT STATS 
http://torrent-stats.info/dafb/6e7ef91f.png

      ) (`-.                           (` .-') /`           ) (`-.
       ( OO ).                          `.( OO ),'            ( OO ).
      (_/.  _)-.-'),-----. ,--.     ,--./  .--.  .-'),-----.(_/.  _)-.
         `.'  ( OO'  .-.  '|  |.-') |      |  | ( OO'  .-.  '  `.'  /
             /Y   |  | |  ||  | OO )|  |   |  |,/   |  | |  |      /
             _) |  ||  ||  |`-' ||  |.'.|  |_)_) |  ||  |      |
        .'    _) |  | |  (|  '---.'|         |    |  | |  | .'    _)
       /  .'.    `'  '-'  '|      | |   ,'.   |    `'  '-'  '/  .'.  
      '--'   '--'   `-----' `------' '--'   '--'      `-----''--'   '--'


      ßßßßßßßßßßßßßßßßßßßßßßßßßßßßßßßßßßßßßßßßßßßßßßßßßßßßßßßßßßßßßßßßßßßßßß

                      Û°°°°°°°°°°°°°°°°°°°°°°°°°°°°Û
                     ÛÛ DayBreakers[2010]DvDScR-LW ÛÛ
                      Û°°°°°°°°°°°°°°°°°°°°°°°°°°°°Û

File Name    : DayBreakers[2010]DvDScR-LW
Type         : Movie
Format       : AVI
File Size    : 700 MB
Duration     : 01:33:51
Language     : English
Source       : DvDScR
Subtitles    : None
Genre        : Action | Drama | Horror | Sci-Fi | Thriller
IMDB Link    : http://www.imdb.com/title/tt0433362/
IMDB Rating  : 7.0/10
IMDB Votes   : 6,499 Votes
     ÜÜÜÜÜÜÜÜÜÜÜÜÜÜÜÜÜÜÜÜÜÜÜÜÜÜÜÜÜÜÜÜÜÜÜÜÜÜÜÜÜÜÜÜÜÜÜÜÜÜÜÜÜÜÜÜÜÜÜÜÜÜÜÜÜÜÜÜÜÜ
 
                        Û°°°°°°°°°°°°°°°°°°°°°°°°Û
                       ÛÛ       Video Info       ÛÛ
                        Û°°°°°°°°°°°°°°°°°°°°°°°°Û

Format                           : MPEG-4 Visual
Format profile                   : Advanced Simple@L5
Format settings, BVOP            : Yes
Format settings, QPel            : No
Format settings, GMC             : No warppoints
Format settings, Matrix          : Default (H.263)
Codec ID                         : XVID
Codec ID/Hint                    : XviD
Duration                         : 1h 33mn
Bit rate                         : 905 Kbps
Width                            : 640 pixels
Height                           : 272 pixels
Display aspect ratio             : 2.35:1
Frame rate                       : 25.000 fps
Resolution                       : 8 bits
Colorimetry                      : 4:2:0
Scan type                        : Progressive
Bits/(Pixel*Frame)               : 0.208
Stream size                      : 607 MiB (87%)
Writing library                  : XviD 1.2.1
     ÜÜÜÜÜÜÜÜÜÜÜÜÜÜÜÜÜÜÜÜÜÜÜÜÜÜÜÜÜÜÜÜÜÜÜÜÜÜÜÜÜÜÜÜÜÜÜÜÜÜÜÜÜÜÜÜÜÜÜÜÜÜÜÜÜÜÜÜÜÜ

                         Û°°°°°°°°°°°°°°°°°°°°°°°°Û
                        ÛÛ      Sound Info        ÛÛ
                         Û°°°°°°°°°°°°°°°°°°°°°°°°Û

Format                           : MPEG Audio
Format version                   : Version 1
Format profile                   : Layer 3
Mode                             : Joint stereo / MS Stereo
Codec ID                         : 55
Codec ID/Hint                    : MP3
Duration                         : 1h 33mn
Bit rate mode                    : Variable
Bit rate                         : 126 Kbps
Channel(s)                       : 2 channels
Sampling rate                    : 48.0 KHz
Stream size                      : 84.8 MiB (12%)
Alignment                        : Aligned on interleaves
Interleave, duration             : 24 ms (0.60 video frame)
Interleave, preload duration     : 181 ms
Writing library                  : LAME3.98
    ÜÜÜÜÜÜÜÜÜÜÜÜÜÜÜÜÜÜÜÜÜÜÜÜÜÜÜÜÜÜÜÜÜÜÜÜÜÜÜÜÜÜÜÜÜÜÜÜÜÜÜÜÜÜÜÜÜÜÜÜÜÜÜÜÜÜÜÜÜÜ

                          Û°°°°°°°°°°°°°°°°°°°°°°°°Û
                         ÛÛ          Plot          ÛÛ
                          Û°°°°°°°°°°°°°°°°°°°°°°°°Û

Earth's population is up against a vicious plague 
that's transforming everyone into vampires and 
draining the world of an increasingly precious 
resource: blood. Edward Dalton (Ethan Hawke) and 
"Elvis" Cormac (Willem Dafoe) must decide what 
happens next. As the human race count nears zero, 
will vampires feast on the few men and women who 
remain, or could science hold the key to a less 
destructive solution? Sam Neill and Claudia Karvan 
co-star.

Starring: Ethan Hawke, Willem Dafoe

Director: Michael Spierig
    ÜÜÜÜÜÜÜÜÜÜÜÜÜÜÜÜÜÜÜÜÜÜÜÜÜÜÜÜÜÜÜÜÜÜÜÜÜÜÜÜÜÜÜÜÜÜÜÜÜÜÜÜÜÜÜÜÜÜÜÜÜÜÜÜÜÜÜÜÜÜ

                          Û°°°°°°°°°°°°°°°°°°°°°°°°Û
                         ÛÛ         Shoutz         ÛÛ
                          Û°°°°°°°°°°°°°°°°°°°°°°°°Û


           -/-ExtraTorrent-/-ShipWreckTorrentz-/-


ScreenShots 
http://leetleech.org/images/98657755464287098835.png 
http://leetleech.org/images/27099597875264501841.png 
http://leetleech.org/images/89382878994915997718.png 
http://leetleech.org/images/06692159193098316405.png 
http://leetleech.org/images/97081330638935320638.jpg